<svg xmlns="http://www.w3.org/2000/svg" version="1.1" xmlns:xlink="http://www.w3.org/1999/xlink" xmlns:svgjs="http://svgjs.dev/svgjs" width="2000" height="383" viewBox="0 0 2000 383"><g transform="matrix(1,0,0,1,-1.2121212121212466,-0.48917105905275093)"><svg viewBox="0 0 396 76" data-background-color="#90adbb" preserveAspectRatio="xMidYMid meet" height="383" width="2000" xmlns="http://www.w3.org/2000/svg" xmlns:xlink="http://www.w3.org/1999/xlink"><g id="tight-bounds" transform="matrix(1,0,0,1,0.2400000000000091,0.0970678863916703)"><svg viewBox="0 0 395.52 75.80586422721665" height="75.80586422721665" width="395.52"><g><svg viewBox="0 0 502.0988498205747 96.23290159319409" height="75.80586422721665" width="395.52"><g transform="matrix(1,0,0,1,106.5788498205747,29.73736340293889)"><svg viewBox="0 0 395.52 36.75817478731631" height="36.75817478731631" width="395.52"><g id="textblocktransform"><svg viewBox="0 0 395.52 36.75817478731631" height="36.75817478731631" width="395.52" id="textblock"><g><svg viewBox="0 0 395.52 36.75817478731631" height="36.75817478731631" width="395.52"><g transform="matrix(1,0,0,1,0,0)"><svg width="395.52" viewBox="1.65 -35.65 387.87 36.05" height="36.75817478731631" data-palette-color="#f6f6f6"><path d="M39.25-5.75L49.35-35.25 53.35-35.25 41.05 0 37.55 0 27.5-28.85 17.45 0 14 0 1.65-35.25 5.8-35.25 15.8-5.8 26.05-35.25 29.15-35.2 39.25-5.75ZM81.7 0L59.4 0 59.4-35.25 81.7-35.25 81.7-31.85 63.45-31.85 63.45-19.6 80.7-19.6 80.7-16.2 63.45-16.2 63.45-3.4 81.7-3.4 81.7 0ZM108.5-18.1Q111.55-17.3 113.22-15.1 114.9-12.9 114.9-9.6L114.9-9.6Q114.9-4.95 111.85-2.48 108.8 0 103.2 0L103.2 0 88.5 0 88.5-35.25 102.65-35.25Q108.1-35.25 111.1-32.85 114.1-30.45 114.1-26.05L114.1-26.05Q114.1-23.2 112.62-21.15 111.15-19.1 108.5-18.1L108.5-18.1ZM92.55-31.85L92.55-19.6 102.05-19.6Q106-19.6 108.02-21.2 110.05-22.8 110.05-25.85L110.05-25.85Q110.05-31.85 102.05-31.85L102.05-31.85 92.55-31.85ZM102.8-3.4Q106.95-3.4 108.92-4.93 110.9-6.45 110.9-9.7L110.9-9.7Q110.9-16.2 102.8-16.2L102.8-16.2 92.55-16.2 92.55-3.4 102.8-3.4ZM137.59-18.35L150.09-18.35 150.09-2.05Q147.99-0.95 144.62-0.28 141.24 0.4 137.79 0.4L137.79 0.4Q132.54 0.4 128.74-1.75 124.94-3.9 122.92-7.95 120.89-12 120.89-17.65L120.89-17.65Q120.89-23.25 122.89-27.3 124.89-31.35 128.64-33.5 132.39-35.65 137.49-35.65L137.49-35.65Q141.19-35.65 144.29-34.52 147.39-33.4 149.59-31.2L149.59-31.2 148.04-28.05Q145.49-30.25 143.02-31.2 140.54-32.15 137.49-32.15L137.49-32.15Q131.54-32.15 128.34-28.4 125.14-24.65 125.14-17.65L125.14-17.65Q125.14-10.5 128.39-6.78 131.64-3.05 137.89-3.05L137.89-3.05Q142.44-3.05 146.34-4.4L146.34-4.4 146.34-15.15 137.59-15.15 137.59-18.35ZM172.14 0.4Q165.24 0.4 161.69-3.2 158.14-6.8 158.14-13.8L158.14-13.8 158.14-35.25 162.19-35.25 162.19-13.45Q162.19-8.3 164.72-5.7 167.24-3.1 172.14-3.1L172.14-3.1Q177.04-3.1 179.54-5.7 182.04-8.3 182.04-13.45L182.04-13.45 182.04-35.25 186.14-35.25 186.14-13.8Q186.14-6.85 182.57-3.23 178.99 0.4 172.14 0.4L172.14 0.4ZM216.19-11.5L222.34 0 217.84 0 211.84-11.3Q210.74-13.35 209.26-14.13 207.79-14.9 205.24-14.9L205.24-14.9 198.64-14.9 198.64 0 194.59 0 194.59-35.25 209.09-35.25Q214.84-35.25 217.86-32.7 220.89-30.15 220.89-25.2L220.89-25.2Q220.89-21.1 218.56-18.57 216.24-16.05 211.94-15.4L211.94-15.4Q213.29-15 214.31-14.05 215.34-13.1 216.19-11.5L216.19-11.5ZM198.64-18.3L208.74-18.3Q212.84-18.3 214.86-20 216.89-21.7 216.89-25.15L216.89-25.15Q216.89-28.55 214.89-30.2 212.89-31.85 208.74-31.85L208.74-31.85 198.64-31.85 198.64-18.3ZM242.64 0.4Q235.74 0.4 232.19-3.2 228.64-6.8 228.64-13.8L228.64-13.8 228.64-35.25 232.69-35.25 232.69-13.45Q232.69-8.3 235.21-5.7 237.74-3.1 242.64-3.1L242.64-3.1Q247.54-3.1 250.04-5.7 252.54-8.3 252.54-13.45L252.54-13.45 252.54-35.25 256.64-35.25 256.64-13.8Q256.64-6.85 253.06-3.23 249.49 0.4 242.64 0.4L242.64 0.4ZM273.28-18.1L292.63 0 287.33 0 269.18-16.75 269.18 0 265.08 0 265.08-35.25 269.18-35.25 269.18-19.05 286.48-35.25 291.68-35.25 273.28-18.1ZM309.73 0.4Q302.83 0.4 299.28-3.2 295.73-6.8 295.73-13.8L295.73-13.8 295.73-35.25 299.78-35.25 299.78-13.45Q299.78-8.3 302.31-5.7 304.83-3.1 309.73-3.1L309.73-3.1Q314.63-3.1 317.13-5.7 319.63-8.3 319.63-13.45L319.63-13.45 319.63-35.25 323.73-35.25 323.73-13.8Q323.73-6.85 320.15-3.23 316.58 0.4 309.73 0.4L309.73 0.4ZM353.93 0L332.18 0 332.18-35.25 336.28-35.25 336.28-3.5 353.93-3.5 353.93 0ZM389.52 0L385.38 0 381.47-9.05 363.07-9.05 359.18 0 354.97 0 370.47-35.25 374.02-35.25 389.52 0ZM372.27-30.5L364.52-12.45 380.02-12.45 372.27-30.5Z" opacity="1" transform="matrix(1,0,0,1,0,0)" fill="#000000" class="wordmark-text-0" data-fill-palette-color="primary" id="text-0"></path></svg></g></svg></g></svg></g></svg></g><g><svg viewBox="0 0 97.90112694948422 96.23290159319409" height="96.23290159319409" width="97.90112694948422"><g><svg xmlns="http://www.w3.org/2000/svg" xmlns:xlink="http://www.w3.org/1999/xlink" version="1.1" x="0" y="0" viewBox="-345.9993836358223 257.9479943277313 99.75176572719312 98.0520056722687" enable-background="new -346 256 100 100" xml:space="preserve" height="96.23290159319409" width="97.90112694948422" class="icon-icon-0" data-fill-palette-color="accent" id="icon-0"><path d="M-246.455 327.152l-16.86-64.454c0 0-1.243-4.756-6.002-4.75l-72.96 0.08c0 0-4.759 0.004-3.515 4.761l15.835 60.538c7.148-15.684 15.203-33.301 15.795-34.599l0.423-0.924 21.84-0.021-1.048 2.253c-5.985 12.87-13.768 29.775-19.236 41.944l62.212-0.067C-249.97 331.912-245.211 331.906-246.455 327.152z" fill="#000000" data-fill-palette-color="accent"></path><path d="M-296.864 290.954l-14.839 0.015c-9.094 19.892-25.758 56.396-26.425 58.074-1.594 4.007 0.346 6.235 1.171 6.957h56.176l-1.875-4.804h-35.137c-0.044 0.002-0.107 0.005-0.184 0.005-1.988 0-3.998-1.204-4.006-3.894-0.002-0.629-0.004-1.579 13.149-30.369C-303.924 306.194-298.966 295.487-296.864 290.954z" fill="#000000" data-fill-palette-color="accent"></path></svg></g></svg></g></svg></g><defs></defs></svg><rect width="395.52" height="75.80586422721665" fill="none" stroke="none" visibility="hidden"></rect></g></svg></g></svg>